Coordinates
version=1
nRows=12
nColumns=42
inDegrees=yes

Units are S.I. units (second, meters, Newtons, ...)
If the header above contains a line with 'inDegrees', this indicates whether rotational values are in degrees (yes) or radians (no).

endheader
time	pelvis_tilt	pelvis_list	pelvis_rotation	pelvis_tx	pelvis_ty	pelvis_tz	hip_flexion_r	hip_adduction_r	hip_rotation_r	knee_angle_r	knee_adduction_r	knee_angle_r_beta	ankle_angle_r	subtalar_angle_r	mtp_angle_r	hip_flexion_l	hip_adduction_l	hip_rotation_l	knee_angle_l	knee_adduction_l	knee_angle_l_beta	ankle_angle_l	subtalar_angle_l	mtp_angle_l	lumbar_extension	lumbar_bending	lumbar_rotation	arm_flex_r	arm_add_r	arm_rot_r	elbow_flex_r	pro_sup_r	wrist_flex_r	wrist_dev_r	arm_flex_l	arm_add_l	arm_rot_l	elbow_flex_l	pro_sup_l	wrist_flex_l	wrist_dev_l
      1.73000000	      2.09778117	      6.22388626	     10.32849243	      0.11506237	      0.89100244	      0.12178328	     26.69910300	    -15.99083773	    -17.26218260	     47.12594129	      0.72120347	      0.82250284	      7.90311677	     -9.42377670	     -7.53289620	      4.55377834	      0.62156749	     -9.44298439	     11.38730623	      8.19407288	      0.19874599	     10.55734933	     34.80034360	     -7.53289620	    -20.72471659	     -5.91013639	     -6.10714772	    -15.99902024	     -9.93024599	    -11.95764285	     60.27072687	     90.00000001	      0.00000000	      0.00000000	      5.44996919	    -20.65219044	     20.51371226	     84.64444740	     90.00000001	      0.00000000	      0.00000000
      1.74000000	      2.14109472	      6.39067567	     10.49280802	      0.11837715	      0.89091048	      0.12177870	     26.08098236	    -15.81733550	    -19.13115327	     43.23933349	     -0.52102442	      0.75466874	      7.10990305	     -6.42626178	     -7.53144968	      4.10710091	      0.67797131	     -9.43462645	     11.14868339	      8.34783640	      0.19458123	     10.88590929	     35.32969070	     -7.53144968	    -21.00566410	     -5.80037447	     -6.24553796	    -15.77042168	     -9.91479052	    -12.23812077	     60.00719656	     90.00000001	      0.00000000	      0.00000000	      5.30860198	    -20.59932473	     19.82246470	     85.54348437	     90.00000001	      0.00000000	      0.00000000
      1.75000000	      1.70687096	      6.66891918	     10.55985188	      0.12154522	      0.89004823	      0.12214126	     26.27731102	    -15.97009460	    -20.55693468	     40.05302985	     -1.37231045	      0.69905725	      7.21073959	     -2.02359388	     -7.52888388	      4.32774079	      1.06070142	     -9.40666181	     11.18555801	      8.20173832	      0.19522482	     11.13389473	     35.38419908	     -7.52888388	    -20.77000231	     -6.01521469	     -6.36483644	    -15.55691228	     -9.87371092	    -12.47470073	     59.83063432	     90.00000001	      0.00000000	      0.00000000	      5.15370255	    -20.65368643	     19.21837170	     86.25508875	     90.00000001	      0.00000000	      0.00000000
      1.76000000	      1.23589170	      7.07891401	     10.62042160	      0.12478484	      0.88912102	      0.12279010	     26.55100588	    -16.20900043	    -20.84530216	     37.44876768	     -1.61221071	      0.65360430	      6.47738881	     -1.55852654	     -7.52856017	      4.52129734	      1.54681004	     -9.52830869	     11.18129156	      8.12263954	      0.19515035	     11.25167385	     35.19202037	     -7.52856017	    -20.51817142	     -6.40088613	     -6.34158124	    -15.59605913	     -9.87262193	    -12.46990402	     59.89560338	     90.00000001	      0.00000000	      0.00000000	      5.31240452	    -20.69691417	     19.10031176	     86.46749244	     90.00000001	      0.00000000	      0.00000000
      1.77000000	      1.26823546	      7.16907680	     10.84141836	      0.12860847	      0.88903810	      0.12345170	     26.04923323	    -16.21433077	    -23.94077340	     34.89447064	     -2.97824880	      0.60902340	      5.87610327	      4.29822956	     -7.52621184	      4.18489467	      1.50991449	     -9.57056624	     11.16696243	      8.10706754	      0.19490026	     11.60028440	     35.74490174	     -7.52621184	    -20.69863590	     -6.29127227	     -6.46744664	    -15.39031692	     -9.75434027	    -12.71951451	     59.61061313	     90.00000001	      0.00000000	      0.00000000	      5.07029446	    -20.62443848	     18.39368907	     87.28516084	     90.00000001	      0.00000000	      0.00000000
      1.78000000	      1.05543542	      7.34541527	     11.07493741	      0.13236436	      0.88868978	      0.12423976	     25.79809750	    -16.25844359	    -25.65476805	     32.95281029	     -3.66209957	      0.57513504	      4.96659273	      6.45111223	     -7.52513477	      4.12830094	      1.73294227	     -9.15280673	     11.12394501	      7.93257083	      0.19414947	     12.03961123	     35.56457308	     -7.52513477	    -20.62441096	     -6.36009195	     -6.57709140	    -15.30764372	     -9.63776378	    -12.83956738	     59.44646017	     90.00000001	      0.00000000	      0.00000000	      5.00473340	    -20.60680229	     17.98677320	     87.69566759	     90.00000001	      0.00000000	      0.00000000
      1.79000000	      0.82584470	      7.45439415	     11.46807997	      0.13651066	      0.88846962	      0.12517543	     25.38500647	    -16.25453847	    -26.52765593	     31.47141575	     -3.84709447	      0.54927983	      4.64211048	      6.96252052	     -7.52491129	      4.12218571	      1.84351780	     -8.76441236	     11.16744986	      7.75307242	      0.19490877	     12.16342657	     35.65862093	     -7.52491129	    -20.47181590	     -6.34385505	     -6.69591261	    -15.37210283	     -9.48770537	    -12.86645346	     59.36219066	     90.00000001	      0.00000000	      0.00000000	      5.01452603	    -20.64016570	     17.89026729	     87.83325348	     90.00000001	      0.00000000	      0.00000000
      1.80000000	      0.98955155	      7.43099486	     12.04991951	      0.14120546	      0.88869883	      0.12609056	     24.40141134	    -16.11660916	    -28.79657860	     30.29721765	     -4.55708291	      0.52878620	      3.89155433	      8.59814477	     -7.52445660	      3.63115028	      1.46833259	     -8.23197642	     11.17182671	      8.08347283	      0.19498516	     12.65332481	     35.74359823	     -7.52445660	    -20.65930637	     -6.07136244	     -7.07926776	    -15.26549748	     -9.25932111	    -13.13429603	     59.04095867	     90.00000001	      0.00000000	      0.00000000	      4.96519413	    -20.58008362	     17.59606652	     88.03046292	     90.00000001	      0.00000000	      0.00000000
      1.81000000	      0.89707270	      7.64861300	     12.60872586	      0.14586123	      0.88852967	      0.12714520	     23.75110175	    -16.45131913	    -31.76949569	     29.62546101	     -5.49715039	      0.51706184	      3.99597620	     13.64383926	     -7.52303003	      3.45577658	      1.55973590	     -7.88491989	     11.29851874	      8.02628012	      0.19719635	     13.00428441	     35.80207631	     -7.52303003	    -20.56754627	     -6.15617014	     -7.37359280	    -15.14674808	     -8.75752990	    -14.05377063	     58.68587581	     90.00000001	      0.00000000	      0.00000000	      4.88086454	    -20.48382098	     17.18243536	     88.31903925	     90.00000001	      0.00000000	      0.00000000
      1.82000000	      0.75718082	      7.79781674	     13.13934165	      0.15051061	      0.88835815	      0.12834234	     22.94968128	    -16.46440483	    -32.89261344	     29.02109553	     -5.62721961	      0.50651367	      5.98806302	     15.76252784	     -7.52205898	      3.27358721	      1.51513073	     -7.51113502	     11.29597314	      8.09920882	      0.19715192	     13.28634053	     35.94909829	     -7.52205898	    -20.45294489	     -6.17832839	     -7.60340831	    -15.22499028	     -8.45376174	    -14.33690014	     58.57496703	     90.00000001	      0.00000000	      0.00000000	      4.91083222	    -20.46001219	     17.11998171	     88.29307962	     90.00000001	      0.00000000	      0.00000000
      1.83000000	      0.60088836	      7.88051283	     13.62868007	      0.15485268	      0.88853181	      0.12929419	     22.35649915	    -16.44197417	    -33.56484682	     28.58596395	     -5.60005757	      0.49891919	      6.31976608	     15.71646308	     -7.52191200	      3.19876576	      1.53581799	     -7.20323465	     11.37137364	      7.94574415	      0.19846791	     13.34539150	     36.02117697	     -7.52191200	    -20.31025310	     -6.08909712	     -7.78888623	    -15.34669453	     -8.24280077	    -14.37386934	     58.48857907	     90.00000001	      0.00000000	      0.00000000	      4.94820438	    -20.37152778	     17.12648490	     88.21327209	     90.00000001	      0.00000000	      0.00000000
      1.84000000	      0.60015802	      7.73833347	     14.15963486	      0.15873919	      0.88905480	      0.13031293	     21.97393943	    -16.20657011	    -34.73587418	     28.23318246	     -6.08396014	      0.49276199	      6.34924019	     16.63451699	     -7.52050677	      3.08509467	      1.27059652	     -6.68770452	     11.52346043	      7.84658962	      0.20112233	     13.73942126	     36.10443185	     -7.52050677	    -20.29962623	     -5.63225863	     -7.96613914	    -15.57269639	     -7.06282914	    -17.03555649	     59.25095966	     90.00000001	      0.00000000	      0.00000000	      5.13805279	    -20.01614490	     16.83655798	     87.65545150	     90.00000001	      0.00000000	      0.00000000
